<svg width="36" height="36" viewBox="0 0 36 36" fill="none" xmlns="http://www.w3.org/2000/svg">
<g id="add_36">
<path id="&#226;&#134;&#179; Icon Color" d="M20.1213 18L26.4853 24.364C27.0711 24.9497 27.0711 25.8995 26.4853 26.4853C25.8995 27.0711 24.9498 27.0711 24.364 26.4853L18 20.1213L11.6361 26.4853C11.0503 27.0711 10.1005 27.0711 9.51473 26.4853C8.92894 25.8995 8.92894 24.9497 9.51473 24.364L15.8787 18L9.51473 11.636C8.92894 11.0503 8.92894 10.1005 9.51473 9.51472C10.1005 8.92893 11.0503 8.92893 11.6361 9.51472L18 15.8787L24.364 9.51472C24.9498 8.92893 25.8995 8.92893 26.4853 9.51472C27.0711 10.1005 27.0711 11.0503 26.4853 11.636L20.1213 18Z" fill="#98A2B3"/>
</g>
</svg>
